<svg width="27" height="54" viewBox="0 0 27 54" fill="none" xmlns="http://www.w3.org/2000/svg">
<path d="M24.1701 15.697V23.6768H0.529977V15.697H24.1701ZM5.94127 54V12.929C5.94127 10.1527 6.48157 7.8502 7.56217 6.02149C8.65939 4.19279 10.1556 2.82126 12.0508 1.90691C13.946 0.992561 16.0989 0.535386 18.5094 0.535386C20.1387 0.535386 21.6266 0.660071 22.9731 0.909441C24.3364 1.15881 25.3505 1.38324 26.0154 1.58274L24.1202 9.56253C23.7046 9.42953 23.1893 9.30485 22.5742 9.18847C21.9757 9.0721 21.3606 9.01392 20.7288 9.01392C19.1661 9.01392 18.0772 9.37966 17.4621 10.1111C16.847 10.826 16.5394 11.8318 16.5394 13.1285V54H5.94127Z" fill="white"/>
</svg>
